<mxfile modified="2023-03-15T22:10:18.098Z" host="Electron" agent="5.0 (Windows NT 10.0; Win64; x64) AppleWebKit/537.36 (KHTML, like Gecko) draw.io/20.3.0 Chrome/104.0.5112.114 Electron/20.1.3 Safari/537.36" etag="vKfTfZnRCkIp5NRgm6Th" compressed="false" version="20.3.0" type="device">
  <diagram id="q3oa4CLkm8zUHQofmj7r" name="Disclosures">
    <mxGraphModel dx="782" dy="517" grid="1" gridSize="10" guides="1" tooltips="1" connect="1" arrows="1" fold="1" page="1" pageScale="1" pageWidth="827" pageHeight="1169" math="0" shadow="0">
      <root>
        <mxCell id="YJ2Z8KhdvcNMjBGm8vIW-0" />
        <mxCell id="YJ2Z8KhdvcNMjBGm8vIW-1" parent="YJ2Z8KhdvcNMjBGm8vIW-0" />
        <mxCell id="kb0BIKLx2f4cQ5WW09md-0" value="" style="fontStyle=1;align=center;verticalAlign=top;childLayout=stackLayout;horizontal=1;horizontalStack=0;resizeParent=1;resizeParentMax=0;resizeLast=0;marginBottom=0;strokeColor=#82b366;strokeWidth=2;fillColor=none;" parent="YJ2Z8KhdvcNMjBGm8vIW-1" vertex="1">
          <mxGeometry x="280" y="200" width="120" height="83" as="geometry" />
        </mxCell>
        <mxCell id="kb0BIKLx2f4cQ5WW09md-1" value="View Disclosure&lt;br&gt;and/or&lt;br&gt;Terms" style="html=1;align=left;spacingLeft=4;verticalAlign=middle;strokeColor=none;fillColor=none;fontStyle=1" parent="kb0BIKLx2f4cQ5WW09md-0" vertex="1">
          <mxGeometry width="120" height="50" as="geometry" />
        </mxCell>
        <mxCell id="kb0BIKLx2f4cQ5WW09md-2" value="" style="shape=ellipse;" parent="kb0BIKLx2f4cQ5WW09md-1" vertex="1">
          <mxGeometry x="1" width="10" height="16" relative="1" as="geometry">
            <mxPoint x="-25" y="7" as="offset" />
          </mxGeometry>
        </mxCell>
        <mxCell id="kb0BIKLx2f4cQ5WW09md-3" value="" style="line;strokeWidth=1;fillColor=none;align=left;verticalAlign=middle;spacingTop=-1;spacingLeft=3;spacingRight=3;rotatable=0;labelPosition=right;points=[];portConstraint=eastwest;" parent="kb0BIKLx2f4cQ5WW09md-0" vertex="1">
          <mxGeometry y="50" width="120" height="8" as="geometry" />
        </mxCell>
        <mxCell id="kb0BIKLx2f4cQ5WW09md-4" value="." style="html=1;align=center;spacingLeft=4;verticalAlign=top;strokeColor=none;fillColor=none;" parent="kb0BIKLx2f4cQ5WW09md-0" vertex="1">
          <mxGeometry y="58" width="120" height="25" as="geometry" />
        </mxCell>
        <mxCell id="kb0BIKLx2f4cQ5WW09md-20" style="edgeStyle=none;rounded=0;orthogonalLoop=1;jettySize=auto;html=1;entryX=0;entryY=0.75;entryDx=0;entryDy=0;endArrow=open;endFill=0;" parent="YJ2Z8KhdvcNMjBGm8vIW-1" source="kb0BIKLx2f4cQ5WW09md-6" target="kb0BIKLx2f4cQ5WW09md-1" edge="1">
          <mxGeometry relative="1" as="geometry" />
        </mxCell>
        <mxCell id="kb0BIKLx2f4cQ5WW09md-21" style="edgeStyle=none;rounded=0;orthogonalLoop=1;jettySize=auto;html=1;entryX=0;entryY=0.75;entryDx=0;entryDy=0;endArrow=open;endFill=0;" parent="YJ2Z8KhdvcNMjBGm8vIW-1" source="kb0BIKLx2f4cQ5WW09md-6" target="kb0BIKLx2f4cQ5WW09md-10" edge="1">
          <mxGeometry relative="1" as="geometry" />
        </mxCell>
        <mxCell id="kb0BIKLx2f4cQ5WW09md-6" value="&lt;p style=&quot;line-height: 100%&quot;&gt;&amp;lt;&amp;lt;actor&amp;gt;&amp;gt;&lt;br&gt;&lt;br&gt;&lt;b&gt;Authenticated&lt;br&gt;User&lt;/b&gt;&lt;/p&gt;" style="text;html=1;align=center;verticalAlign=middle;dashed=0;strokeColor=#000000;strokeWidth=2;" parent="YJ2Z8KhdvcNMjBGm8vIW-1" vertex="1">
          <mxGeometry x="120" y="200" width="80" height="77" as="geometry" />
        </mxCell>
        <mxCell id="kb0BIKLx2f4cQ5WW09md-19" style="edgeStyle=none;rounded=0;orthogonalLoop=1;jettySize=auto;html=1;entryX=0;entryY=0.75;entryDx=0;entryDy=0;endArrow=open;endFill=0;" parent="YJ2Z8KhdvcNMjBGm8vIW-1" source="kb0BIKLx2f4cQ5WW09md-7" target="kb0BIKLx2f4cQ5WW09md-15" edge="1">
          <mxGeometry relative="1" as="geometry" />
        </mxCell>
        <mxCell id="kb0BIKLx2f4cQ5WW09md-7" value="&lt;p style=&quot;line-height: 100%&quot;&gt;&amp;lt;&amp;lt;actor&amp;gt;&amp;gt;&lt;br&gt;&lt;br&gt;&lt;b&gt;Group Admin&lt;/b&gt;&lt;/p&gt;" style="text;html=1;align=center;verticalAlign=middle;dashed=0;strokeColor=#000000;strokeWidth=2;" parent="YJ2Z8KhdvcNMjBGm8vIW-1" vertex="1">
          <mxGeometry x="120" y="100" width="80" height="77" as="geometry" />
        </mxCell>
        <mxCell id="kb0BIKLx2f4cQ5WW09md-9" value="" style="fontStyle=1;align=center;verticalAlign=top;childLayout=stackLayout;horizontal=1;horizontalStack=0;resizeParent=1;resizeParentMax=0;resizeLast=0;marginBottom=0;strokeColor=#82b366;strokeWidth=2;fillColor=none;" parent="YJ2Z8KhdvcNMjBGm8vIW-1" vertex="1">
          <mxGeometry x="280" y="290" width="120" height="83" as="geometry" />
        </mxCell>
        <mxCell id="kb0BIKLx2f4cQ5WW09md-10" value="Accept Version of &lt;br&gt;Terms" style="html=1;align=left;spacingLeft=4;verticalAlign=middle;strokeColor=none;fillColor=none;fontStyle=1" parent="kb0BIKLx2f4cQ5WW09md-9" vertex="1">
          <mxGeometry width="120" height="50" as="geometry" />
        </mxCell>
        <mxCell id="kb0BIKLx2f4cQ5WW09md-11" value="" style="shape=ellipse;" parent="kb0BIKLx2f4cQ5WW09md-10" vertex="1">
          <mxGeometry x="1" width="10" height="16" relative="1" as="geometry">
            <mxPoint x="-25" y="7" as="offset" />
          </mxGeometry>
        </mxCell>
        <mxCell id="kb0BIKLx2f4cQ5WW09md-12" value="" style="line;strokeWidth=1;fillColor=none;align=left;verticalAlign=middle;spacingTop=-1;spacingLeft=3;spacingRight=3;rotatable=0;labelPosition=right;points=[];portConstraint=eastwest;" parent="kb0BIKLx2f4cQ5WW09md-9" vertex="1">
          <mxGeometry y="50" width="120" height="8" as="geometry" />
        </mxCell>
        <mxCell id="kb0BIKLx2f4cQ5WW09md-13" value="." style="html=1;align=center;spacingLeft=4;verticalAlign=top;strokeColor=none;fillColor=none;" parent="kb0BIKLx2f4cQ5WW09md-9" vertex="1">
          <mxGeometry y="58" width="120" height="25" as="geometry" />
        </mxCell>
        <mxCell id="kb0BIKLx2f4cQ5WW09md-14" value="" style="fontStyle=1;align=center;verticalAlign=top;childLayout=stackLayout;horizontal=1;horizontalStack=0;resizeParent=1;resizeParentMax=0;resizeLast=0;marginBottom=0;strokeColor=#82b366;strokeWidth=2;fillColor=none;" parent="YJ2Z8KhdvcNMjBGm8vIW-1" vertex="1">
          <mxGeometry x="280" y="100" width="120" height="83" as="geometry" />
        </mxCell>
        <mxCell id="kb0BIKLx2f4cQ5WW09md-15" value="Publish new &lt;br&gt;Version&amp;nbsp;of Terms" style="html=1;align=left;spacingLeft=4;verticalAlign=middle;strokeColor=none;fillColor=none;fontStyle=1" parent="kb0BIKLx2f4cQ5WW09md-14" vertex="1">
          <mxGeometry width="120" height="50" as="geometry" />
        </mxCell>
        <mxCell id="kb0BIKLx2f4cQ5WW09md-16" value="" style="shape=ellipse;" parent="kb0BIKLx2f4cQ5WW09md-15" vertex="1">
          <mxGeometry x="1" width="10" height="16" relative="1" as="geometry">
            <mxPoint x="-25" y="7" as="offset" />
          </mxGeometry>
        </mxCell>
        <mxCell id="kb0BIKLx2f4cQ5WW09md-17" value="" style="line;strokeWidth=1;fillColor=none;align=left;verticalAlign=middle;spacingTop=-1;spacingLeft=3;spacingRight=3;rotatable=0;labelPosition=right;points=[];portConstraint=eastwest;" parent="kb0BIKLx2f4cQ5WW09md-14" vertex="1">
          <mxGeometry y="50" width="120" height="8" as="geometry" />
        </mxCell>
        <mxCell id="kb0BIKLx2f4cQ5WW09md-18" value="." style="html=1;align=center;spacingLeft=4;verticalAlign=top;strokeColor=none;fillColor=none;" parent="kb0BIKLx2f4cQ5WW09md-14" vertex="1">
          <mxGeometry y="58" width="120" height="25" as="geometry" />
        </mxCell>
        <mxCell id="kb0BIKLx2f4cQ5WW09md-22" value="" style="fontStyle=1;align=center;verticalAlign=top;childLayout=stackLayout;horizontal=1;horizontalStack=0;resizeParent=1;resizeParentMax=0;resizeLast=0;marginBottom=0;strokeColor=#82b366;strokeWidth=2;fillColor=none;" parent="YJ2Z8KhdvcNMjBGm8vIW-1" vertex="1">
          <mxGeometry x="280" y="380" width="120" height="83" as="geometry" />
        </mxCell>
        <mxCell id="kb0BIKLx2f4cQ5WW09md-23" value="List Accepted &lt;br&gt;Versions" style="html=1;align=left;spacingLeft=4;verticalAlign=middle;strokeColor=none;fillColor=none;fontStyle=1" parent="kb0BIKLx2f4cQ5WW09md-22" vertex="1">
          <mxGeometry width="120" height="50" as="geometry" />
        </mxCell>
        <mxCell id="kb0BIKLx2f4cQ5WW09md-24" value="" style="shape=ellipse;" parent="kb0BIKLx2f4cQ5WW09md-23" vertex="1">
          <mxGeometry x="1" width="10" height="16" relative="1" as="geometry">
            <mxPoint x="-25" y="7" as="offset" />
          </mxGeometry>
        </mxCell>
        <mxCell id="kb0BIKLx2f4cQ5WW09md-25" value="" style="line;strokeWidth=1;fillColor=none;align=left;verticalAlign=middle;spacingTop=-1;spacingLeft=3;spacingRight=3;rotatable=0;labelPosition=right;points=[];portConstraint=eastwest;" parent="kb0BIKLx2f4cQ5WW09md-22" vertex="1">
          <mxGeometry y="50" width="120" height="8" as="geometry" />
        </mxCell>
        <mxCell id="kb0BIKLx2f4cQ5WW09md-26" value="." style="html=1;align=center;spacingLeft=4;verticalAlign=top;strokeColor=none;fillColor=none;" parent="kb0BIKLx2f4cQ5WW09md-22" vertex="1">
          <mxGeometry y="58" width="120" height="25" as="geometry" />
        </mxCell>
        <mxCell id="JgxYJlpoQBV576n5CZln-0" value="Title" parent="YJ2Z8KhdvcNMjBGm8vIW-0" />
        <mxCell id="JgxYJlpoQBV576n5CZln-1" value="Information" parent="YJ2Z8KhdvcNMjBGm8vIW-0" />
      </root>
    </mxGraphModel>
  </diagram>
</mxfile>
